HIERARCHY
ROOT Hips
{
	OFFSET 0.00000 0.00000 0.00000
	CHANNELS 6 Xposition Yposition Zposition Zrotation Yrotation Xrotation 
	JOINT LHipJoint
	{
		OFFSET 0 0 0
		CHANNELS 3 Zrotation Yrotation Xrotation
		JOINT LeftUpLeg
		{
			OFFSET 1.81638 -1.86202 0.89635
			CHANNELS 3 Zrotation Yrotation Xrotation
			JOINT LeftLeg
			{
				OFFSET 2.63464 -7.23861 0.00000
				CHANNELS 3 Zrotation Yrotation Xrotation
				JOINT LeftFoot
				{
					OFFSET 2.45871 -6.75336 0.00000
					CHANNELS 3 Zrotation Yrotation Xrotation
					JOINT LeftToeBase
					{
						OFFSET 0.34235 -0.94059 2.20020
						CHANNELS 3 Zrotation Yrotation Xrotation
						End Site
						{
							OFFSET 0.00000 -0.00000 1.18611
						}
					}
				}
			}
		}
	}
	JOINT RHipJoint
	{
		OFFSET 0 0 0
		CHANNELS 3 Zrotation Yrotation Xrotation
		JOINT RightUpLeg
		{
			OFFSET -1.84405 -1.86203 0.89635
			CHANNELS 3 Zrotation Yrotation Xrotation
			JOINT RightLeg
			{
				OFFSET -2.71067 -7.44751 0.00000
				CHANNELS 3 Zrotation Yrotation Xrotation
				JOINT RightFoot
				{
					OFFSET -2.47159 -6.79060 0.00000
					CHANNELS 3 Zrotation Yrotation Xrotation
					JOINT RightToeBase
					{
						OFFSET -0.26223 -0.72048 2.36007
						CHANNELS 3 Zrotation Yrotation Xrotation
						End Site
						{
							OFFSET -0.00000 -0.00000 1.23343
						}
					}
				}
			}
		}
	}
	JOINT LowerBack
	{
		OFFSET 0 0 0
		CHANNELS 3 Zrotation Yrotation Xrotation
		JOINT Spine
		{
			OFFSET 0.02089 1.99248 -0.22512
			CHANNELS 3 Zrotation Yrotation Xrotation
			JOINT Spine1
			{
				OFFSET 0.01476 2.01356 -0.03079
				CHANNELS 3 Zrotation Yrotation Xrotation
				JOINT Neck
				{
					OFFSET 0 0 0
					CHANNELS 3 Zrotation Yrotation Xrotation
					JOINT Neck1
					{
						OFFSET 0.04846 1.65098 0.06663
						CHANNELS 3 Zrotation Yrotation Xrotation
						JOINT Head
						{
							OFFSET -0.06061 1.60634 -0.07565
							CHANNELS 3 Zrotation Yrotation Xrotation
							End Site
							{
								OFFSET -0.02954 1.73562 -0.03642
							}
						}
					}
				}
				JOINT LeftShoulder
				{
					OFFSET 0 0 0
					CHANNELS 3 Zrotation Yrotation Xrotation
					JOINT LeftArm
					{
						OFFSET 3.45234 1.47051 -0.06993
						CHANNELS 3 Zrotation Yrotation Xrotation
						JOINT LeftForeArm
						{
							OFFSET 5.49313 -0.00000 0.00000
							CHANNELS 3 Zrotation Yrotation Xrotation
							JOINT LeftHand
							{
								OFFSET 3.29037 -0.00000 0.00000
								CHANNELS 3 Zrotation Yrotation Xrotation
								JOINT LeftFingerBase
								{
									OFFSET 0 0 0
									CHANNELS 3 Zrotation Yrotation Xrotation
									JOINT LeftHandIndex1
									{
										OFFSET 0.72966 -0.00000 0.00000
										CHANNELS 3 Zrotation Yrotation Xrotation
										End Site
										{
											OFFSET 0.58827 -0.00000 0.00000
										}
									}
								}
								JOINT LThumb
								{
									OFFSET 0 0 0
									CHANNELS 3 Zrotation Yrotation Xrotation
									End Site
									{
										OFFSET 0.59725 -0.00000 0.59725
									}
								}
							}
						}
					}
				}
				JOINT RightShoulder
				{
					OFFSET 0 0 0
					CHANNELS 3 Zrotation Yrotation Xrotation
					JOINT RightArm
					{
						OFFSET -3.41935 1.44327 0.20453
						CHANNELS 3 Zrotation Yrotation Xrotation
						JOINT RightForeArm
						{
							OFFSET -5.23684 -0.00000 0.00000
							CHANNELS 3 Zrotation Yrotation Xrotation
							JOINT RightHand
							{
								OFFSET -3.38251 -0.00000 0.00000
								CHANNELS 3 Zrotation Yrotation Xrotation
								JOINT RightFingerBase
								{
									OFFSET 0 0 0
									CHANNELS 3 Zrotation Yrotation Xrotation
									JOINT RightHandIndex1
									{
										OFFSET -0.69145 -0.00000 0.00000
										CHANNELS 3 Zrotation Yrotation Xrotation
										End Site
										{
											OFFSET -0.55747 -0.00000 0.00000
										}
									}
								}
								JOINT RThumb
								{
									OFFSET 0 0 0
									CHANNELS 3 Zrotation Yrotation Xrotation
									End Site
									{
										OFFSET -0.56598 -0.00000 0.56598
									}
								}
							}
						}
					}
				}
			}
		}
	}
}
MOTION
Frames: 12
Frame Time: 0.0212766
0.00 0.00 0.00 0 0 0 0 0 0 -21 0 0 0 0 0 0 0 0 0 0 0 0 0 0 21 0 0 0 0 0 0 0 0 0 0 0 0 0 0 0 0 0 0 0 0 0 0 -16 0 0 21 0 0 11 0 0 0 -8 0 0 0 0 0 0 0 0 0 0 0 0 0 0 0 0 0 0 0 0 8 0 0 0 0 0 0 0 0 0 0 0 0 0 0 0 0 0
0.00 0.00 0.00 -140.9750 -82.0285 137.2580 0.0000 0.0000 0.0000 -15.1196 -16.9943 3.1759 2.9357 10.5902 30.9101 -0.3600 27.5342 -36.7235 0.0002 -0.0797 -0.2189 0.0000 0.0000 0.0000 21.6862 16.4503 3.2393 -2.2308 -9.3311 26.8366 -0.4808 -20.0488 -31.6626 -0.0196 -0.9037 2.4839 1.2608 -0.1623 9.5506 1.3948 -0.0717 1.1375 0.7498 -0.0675 -4.1725 4.9153 0.7614 -7.6655 -4.2282 0.7882 5.1454 -2.2308 0.3335 3.0794 -0.0000 -0.0000 0.0000 -33.5314 1.3344 -39.4371 19.0099 -29.4310 -5.0357 -0.0000 -0.0000 19.8207 -12.2186 19.8181 -4.1990 -7.1250 0.0000 -0.0000 -37.4069 46.1379 -1.2235 -0.0000 -0.0000 0.0000 30.7185 -4.7056 -16.1830 -19.6706 30.2434 -5.3644 0.0000 0.0000 17.4416 9.2457 -21.7000 -3.4444 7.1250 -0.0000 -0.0000 36.0756 -48.1084 -3.1556
0.00 0.00 0.00 -139.0680 -82.4783 135.3240 0.0000 0.0000 0.0000 -15.3046 -17.4801 3.2617 2.9281 10.5778 30.8688 -0.3869 27.5706 -36.6325 0.0000 -0.0409 -0.1124 0.0000 0.0000 0.0000 21.4610 15.9006 3.1475 -2.2103 -9.2911 26.7101 -0.4523 -20.0446 -31.4735 -0.0166 -0.8313 2.2847 1.1633 -0.2788 9.7383 1.3294 -0.2430 1.3084 0.7593 -0.1526 -4.0983 5.1281 0.8809 -7.6437 -4.6509 0.9440 4.7029 -2.4004 0.3980 2.9419 -0.0000 0.0000 0.0000 -34.3421 5.9348 -20.4978 23.3065 -34.4223 -7.3108 -0.0000 0.0000 -0.9600 -24.8795 20.4131 -9.1880 -7.1250 0.0000 -0.0000 -47.3305 44.8219 0.2737 -0.0000 0.0000 0.0000 29.1213 -11.6864 12.1626 -30.0333 40.9219 -11.4314 0.0000 -0.0000 -3.7556 26.9635 -24.0243 -11.7013 7.1250 -0.0000 -0.0000 51.4315 -47.2251 -3.8304
0.00 0.00 0.00 -134.3060 -83.3829 130.3190 0.0000 0.0000 0.0000 -15.8565 -18.3774 3.7085 2.8863 10.5087 30.6404 -0.5212 27.8479 -36.3178 0.0001 0.0777 0.2134 0.0000 0.0000 0.0000 20.9683 14.6213 3.3406 -2.1131 -9.0977 26.1015 -0.3861 -20.0239 -31.0163 -0.0145 -0.7779 2.1379 0.9063 -0.5068 9.9983 1.1349 -0.5897 1.6450 0.7475 -0.3244 -3.8902 5.4547 1.0638 -8.0240 -4.9723 1.1867 5.8443 -2.5785 0.5121 3.4335 0.0000 -0.0000 0.0000 -36.8148 12.0725 4.5193 39.6452 -47.8583 -18.1757 -0.0000 0.0000 -20.8349 -32.9866 14.9356 -9.4970 -7.1250 0.0000 -0.0000 -48.5537 39.1753 9.9832 0.0000 -0.0000 0.0000 29.5181 -18.5746 35.4256 -69.6843 58.3816 -42.5017 0.0000 -0.0000 -29.2124 45.9776 -21.9421 -21.1387 7.1250 -0.0000 -0.0000 58.8916 -42.1286 7.2560
0.00 0.00 0.00 -132.3680 -83.6495 128.2480 0.0000 0.0000 0.0000 -16.0789 -18.6178 3.8719 2.8577 10.4611 30.4831 -0.6346 28.0722 -36.0372 0.0004 0.1231 0.3381 0.0000 0.0000 0.0000 20.7830 14.1341 3.6043 -2.0284 -8.9251 25.5612 -0.3524 -19.9909 -30.7515 -0.0188 -0.8848 2.4318 0.7024 -0.4846 10.1005 1.1640 -0.5864 1.8087 0.8920 -0.3223 -3.7743 5.4231 1.1254 -8.5196 -5.2839 1.3117 7.2845 -2.4204 0.5376 3.6307 -0.0000 0.0000 0.0000 -38.6557 12.7612 9.8223 49.2068 -52.6705 -25.5420 -0.0000 0.0000 -28.2655 -37.0725 14.7611 -10.8964 -7.1250 0.0000 -0.0000 -50.2490 38.1936 12.6900 -0.0000 0.0000 0.0000 32.0434 -19.3888 36.4122 -90.2486 59.9998 -60.2153 0.0000 -0.0000 -39.1791 51.0391 -21.7877 -24.6549 7.1250 -0.0000 -0.0000 59.2127 -40.5906 11.8809
0.00 0.00 0.00 -130.9180 -84.0498 126.6800 0.0000 0.0000 0.0000 -16.5148 -18.8647 4.0179 2.8178 10.3941 30.2625 -0.7764 28.3411 -35.6672 0.0008 0.1850 0.5084 0.0000 0.0000 0.0000 20.5587 14.1761 4.1351 -1.9345 -8.7282 24.9487 -0.2834 -20.4539 -30.8743 -0.0241 -1.0029 2.7569 0.3706 -0.4689 10.2263 1.1772 -0.6060 1.9689 1.0954 -0.3306 -3.6737 5.5894 1.2910 -8.9948 -5.7036 1.5645 8.5758 -2.5667 0.6344 4.1198 0.0000 -0.0000 0.0000 -40.8900 12.8772 14.1190 60.9609 -56.5606 -35.1418 -0.0000 0.0000 -34.6522 -41.6511 15.0577 -13.0109 -7.1250 0.0000 -0.0000 -51.9041 37.2721 15.7596 0.0000 -0.0000 0.0000 35.7435 -18.9315 34.4440 -109.4804 58.5164 -76.7865 0.0000 -0.0000 -47.1534 52.8559 -20.9332 -25.2510 7.1250 -0.0000 -0.0000 58.0590 -39.0852 15.7737
0.00 0.00 0.00 -130.6540 -84.6275 126.2180 0.0000 0.0000 0.0000 -17.2776 -18.9955 4.2390 2.7426 10.2663 29.8434 -0.9347 28.5626 -35.1238 0.0033 0.3706 1.0184 0.0000 0.0000 0.0000 20.0351 14.2607 4.8355 -1.8161 -8.4720 24.1571 -0.1853 -21.0757 -31.0245 -0.0258 -1.0371 2.8509 -0.1190 -0.4931 10.4888 1.0528 -0.7021 2.1690 1.2564 -0.3769 -3.6051 6.0007 1.6508 -9.3112 -6.2685 2.0819 10.1645 -2.7836 0.8561 4.6985 0.0000 -0.0000 0.0000 -43.5072 13.1515 19.4670 80.3399 -59.6444 -51.6441 -0.0000 0.0000 -39.9383 -45.5536 15.7147 -15.4365 -7.1250 0.0000 -0.0000 -53.0584 36.5986 18.3730 0.0000 -0.0000 0.0000 41.7818 -15.9673 28.4103 -127.4943 53.9574 -91.8120 0.0000 -0.0000 -52.9327 50.7898 -18.9359 -21.6899 7.1250 -0.0000 -0.0000 56.0372 -37.7858 17.9290
0.00 0.00 0.00 -131.9960 -84.9965 127.3150 0.0000 0.0000 0.0000 -17.9431 -18.8620 4.4558 2.6779 10.1544 29.4781 -1.0367 28.6330 -34.6462 0.0076 0.5625 1.5457 0.0000 0.0000 0.0000 19.3263 13.7181 5.1904 -1.7076 -8.2283 23.4098 -0.0656 -21.1753 -30.3485 -0.0201 -0.9164 2.5188 -0.4654 -0.4878 10.8240 0.8553 -0.7500 2.3883 1.2557 -0.4024 -3.5592 6.2617 1.9500 -9.6759 -6.3692 2.4817 11.6078 -2.8372 1.0399 5.2350 0.0000 0.0000 0.0000 -45.5147 13.1117 23.3630 98.7564 -59.7083 -67.5758 -0.0000 0.0000 -43.5188 -45.5256 15.6635 -15.3756 -7.1250 0.0000 -0.0000 -53.0139 36.5596 18.4318 0.0000 0.0000 0.0000 47.3157 -11.4234 21.0071 -137.1942 49.6471 -99.4474 0.0000 -0.0000 -54.7444 46.6026 -17.3760 -17.5278 7.1250 -0.0000 -0.0000 54.5678 -37.8195 16.4935
0.00 0.00 0.00 -135.4050 -85.1967 130.4590 0.0000 0.0000 0.0000 -17.2596 -15.0080 2.6108 2.6136 10.0417 29.1118 -0.9572 26.2932 -31.1723 0.0004 -0.1302 -0.3577 0.0000 0.0000 0.0000 18.3776 12.6689 5.3224 -1.5742 -7.9162 22.4599 0.1093 -20.9652 -28.8113 -0.0080 -0.5760 1.5828 -0.7987 -0.4091 11.2505 0.6309 -0.7046 2.6131 1.2079 -0.3829 -3.5603 6.5298 2.1587 -9.9319 -6.3529 2.7416 13.0471 -2.8653 1.1643 5.7475 -0.0000 0.0000 0.0000 -48.1689 12.0842 26.0421 115.6947 -57.3521 -82.0545 -0.0000 0.0000 -47.6221 -46.0637 15.1014 -15.1302 -7.1250 0.0000 -0.0000 -52.5928 35.8050 19.9672 -0.0000 0.0000 0.0000 53.0122 -4.9304 12.1030 -143.7606 45.6771 -104.3065 0.0000 -0.0000 -56.4127 40.1934 -16.5872 -13.5601 7.1250 -0.0000 -0.0000 52.6583 -39.0052 12.2640
0.00 0.00 0.00 -141.4670 -85.2017 136.3120 0.0000 0.0000 0.0000 -15.9990 -7.8115 -0.6681 2.5722 9.9680 28.8733 -0.2280 20.4168 -27.0949 0.0095 -0.6277 -1.7250 0.0000 0.0000 0.0000 16.8476 10.7385 4.6322 -1.4685 -7.6580 21.6800 0.2690 -19.9516 -26.0523 -0.0004 0.1271 -0.3493 -1.0630 -0.0681 11.8175 0.4522 -0.3050 2.7414 1.1186 -0.1866 -3.7484 6.9032 2.2677 -10.1996 -6.5804 2.8928 15.4782 -3.0104 1.2109 6.5801 -0.0000 0.0000 0.0000 -53.3534 8.2458 27.1206 131.6356 -52.3142 -95.1262 -0.0000 0.0000 -53.5820 -45.4136 14.0670 -13.8523 -7.1250 0.0000 -0.0000 -51.7376 35.0463 20.9946 -0.0000 0.0000 0.0000 59.5015 4.6363 0.6610 -148.9117 41.8081 -107.8714 0.0000 -0.0000 -59.0788 28.4444 -16.9318 -8.9651 7.1250 -0.0000 -0.0000 47.3278 -41.5532 5.4813
0.00 0.00 0.00 -150.6220 -84.9142 145.5280 0.0000 0.0000 0.0000 -15.9825 -1.3823 -4.3935 2.6499 10.1056 29.3193 0.2911 14.9735 -24.0691 0.0105 -0.6622 -1.8197 0.0000 0.0000 0.0000 14.1398 7.5417 1.1366 -1.6670 -8.1351 23.1250 0.2516 -17.1207 -21.8119 -0.0368 1.2382 -3.4045 -1.1936 0.5934 12.7327 0.3402 0.5398 2.4976 0.9448 0.2387 -4.5287 7.0734 2.6068 -11.3764 -6.2440 3.2390 22.0294 -2.9879 1.3167 8.9821 -0.0000 0.0000 0.0000 -63.7770 -3.0271 26.0482 146.6309 -43.6119 -106.3240 -0.0000 0.0000 -57.1742 -31.3271 12.3477 -7.4158 -7.1250 0.0000 -0.0000 -46.1457 37.3359 12.1481 -0.0000 0.0000 0.0000 67.1089 20.3935 -12.1191 -152.6117 38.5469 -110.2599 0.0000 -0.0000 -63.3788 6.8575 -19.2751 -2.2734 7.1250 -0.0000 -0.0000 32.6768 -46.4001 -1.2635
0.00 0.00 0.00 -172.3450 -82.9705 168.2570 0.0000 0.0000 0.0000 -18.8239 4.2008 -8.7997 2.5794 9.9808 28.9145 0.4740 11.7882 -22.0998 0.0052 -0.4667 -1.2825 0.0000 0.0000 0.0000 9.3097 4.0648 -12.9368 -4.1801 -12.3962 37.1485 0.3227 -13.3422 -14.3100 -0.0905 1.9399 -5.3395 -2.1461 1.3203 14.2375 -0.3600 1.2859 2.1371 0.5950 0.6235 -5.7604 8.7327 5.0175 -12.7358 -5.8411 5.9835 29.6491 -2.9193 2.6333 12.3630 0.0000 -0.0000 0.0000 -82.0053 -26.1079 27.7925 156.4527 -34.6818 -112.5526 -0.0000 0.0000 -37.4870 9.9605 13.9667 2.4271 -7.1250 0.0000 -0.0000 -15.9038 43.5648 0.5788 0.0000 -0.0000 0.0000 76.9207 35.0255 5.2656 -149.4160 41.3887 -108.2062 0.0000 -0.0000 -57.8827 -6.2688 -22.5428 2.4115 7.1250 -0.0000 -0.0000 22.7428 -51.1961 -3.6309
